inDegrees=yes
name=ik_lifting_orientations
DataType=double
version=3
OpenSimVersion=4.5-2024-01-10-34fd6af
endheader
time	pelvis_tilt	pelvis_list	pelvis_rotation	pelvis_tx	pelvis_ty	pelvis_tz	hip_flexion_r	hip_adduction_r	hip_rotation_r	knee_angle_r	knee_angle_r_beta	ankle_angle_r	subtalar_angle_r	mtp_angle_r	hip_flexion_l	hip_adduction_l	hip_rotation_l	knee_angle_l	knee_angle_l_beta	ankle_angle_l	subtalar_angle_l	mtp_angle_l	lumbar_extension	lumbar_bending	lumbar_rotation	arm_flex_r	arm_add_r	arm_rot_r	elbow_flex_r	pro_sup_r	wrist_flex_r	wrist_dev_r	arm_flex_l	arm_add_l	arm_rot_l	elbow_flex_l	pro_sup_l	wrist_flex_l	wrist_dev_l
0.74	-1.078967403621204	5.508810006405835	-86.90088046461781	0	0.9399999998679526	0	45.5990871450438	-10.23488032653669	0	60.98347066012352	1.064362352312515	-5.071515053091391	0	0	45.5990871450438	-10.23488032653669	0	60.98347066012352	1.064362352312515	-5.071515053091391	0	0	12.48270925489457	0.3484585135855285	-3.398127411090887	-3.041368645229103	-5.935800094973285	-3.448795904465741	0.02009968297766321	0.0172774682139233	0	0	0	-11.85226965155341	0	89.99732935409413	0.0172774682139233	0	0
0.75	-1.135123598058984	5.886124670415114	-86.75384682469482	0	0.9399999998679526	0	45.59887045609486	-10.23458367369898	0	60.98319134518064	1.064357477347112	-5.071397253428797	0	0	45.59887045609486	-10.23458367369898	0	60.98319134518064	1.064357477347112	-5.071397253428797	0	0	13.8679673702835	0.3391108897291119	-2.376999803288816	-3.97515866340854	-5.92940856979583	-4.377240284983437	0.01960022186645465	0.01727309369571237	0	0	0	-11.85285313819025	0	89.99733000721652	0.01727309369571237	0	0
0.76	-1.229042091974535	6.441611223837841	-86.54143716152167	0	0.9399999998679526	0	45.59872891765122	-10.23439017494865	0	60.98300878809366	1.064354291124871	-5.071320449321506	0	0	45.59872891765122	-10.23439017494865	0	60.98300878809366	1.064354291124871	-5.071320449321506	0	0	15.48577370578327	0.3066373088464746	-1.977791378604535	-4.819254355644696	-5.966943074974703	-4.315373698648895	0.01913916101175001	0.01727023545792433	0	0	0	-11.85323446751383	0	89.99733043395582	0.01727023545792433	0	0
0.77	-1.292615813755689	7.032705977429272	-86.50728156642775	0	0.9399999998679526	0	45.59856356069189	-10.23416421851576	0	60.98279553106031	1.064350569087486	-5.071230783872038	0	0	45.59856356069189	-10.23416421851576	0	60.98279553106031	1.064350569087486	-5.071230783872038	0	0	17.1355570944568	0.2730566169291671	-1.573377580040957	-5.707740491180853	-5.986593792707153	-4.07310885875683	0.01870948262810987	0.01726689615967992	0	0	0	-11.85367997592913	0	89.99733093251818	0.01726689615967992	0	0
0.78	-1.356859976293846	7.630984042857534	-86.48170934989099	0	0.9399999998679526	0	45.59838017568219	-10.23391461123494	0	60.98255838150133	1.064346430046863	-5.07113182273002	0	0	45.59838017568219	-10.23391461123494	0	60.98255838150133	1.064346430046863	-5.07113182273002	0	0	18.80415628415346	0.2406160020917053	-1.174829805649965	-6.697743127244747	-5.856881024529471	-4.059408945324047	0.01831276226397803	0.01726318868875411	0	0	0	-11.85417505976317	0	89.9973314860493	0.01726318868875411	0	0
0.79	-1.559811681501087	8.396510692490553	-86.09260974699846	0	0.9399999998679526	0	45.5981626634236	-10.23361992113693	0	60.98227618589569	1.064341504804409	-5.071015109868111	0	0	45.5981626634236	-10.23361992113693	0	60.98227618589569	1.064341504804409	-5.071015109868111	0	0	20.07880755797983	0.2313056472360479	-1.368362747660391	-7.159539214116123	-5.729639958069442	-4.079298745285833	0.01794154732218934	0.01725878545559143	0	0	0	-11.85476370212076	0	89.99733214345876	0.01725878545559143	0	0
0.8	-1.925925871086713	9.20431536240755	-85.23475305255764	0	0.9399999998679526	0	45.59798208096743	-10.23337515480041	0	60.98204216055274	1.064337420291642	-5.070918184250806	0	0	45.59798208096743	-10.23337515480041	0	60.98204216055274	1.064337420291642	-5.070918184250806	0	0	21.85604035777863	0.1708669848000464	-2.051698392148692	-7.874713897295939	-5.734914492354157	-3.787391394161243	0.01815989290989212	0.01725513107193075	0	0	0	-11.85525207540381	0	89.9973326890639	0.01725513107193075	0	0
